<?xml version="1.0" encoding="UTF-8"?>
<svg id="Layer_1" data-name="Layer 1" xmlns="http://www.w3.org/2000/svg" viewBox="0 0 684.96 272.49">
  <defs>
    <style>
      .cls-1 {
        fill: #fff;
      }
    </style>
  </defs>
  <path class="cls-1" d="M579.17.25c-18.25-.07-36.7-1.31-53.55,7.17-14.85,7.47-23.16,20.17-28.73,35.34-6.19,16.86-10.6,34.31-15.21,51.64-1.81,6.83-3.31,13.99-5.7,20.59-2.42,6.67-3.23,13.71-.93,20.56,5.25,15.67,22.59,18.65,36.67,21.92,12.62,2.93,25.62,4.69,38,8.54,3.34,1.04,7.25,2.37,8.51,6.01.69,1.98.33,4.15-.07,6.2-1.19,6.03-2.78,11.97-4.76,17.79-2.1,6.18-5.09,10.91-11.56,13.26-5.28,1.91-11.05,1.85-16.67,1.76-13.4-.21-26.79-.41-40.19-.61-6.77-.1-13.53-.21-20.3-.31-3.38-.05-6.77-.1-10.15-.16-2.01-.03-4.79-.84-5.88,1-.77,1.29-1,3.35-1.42,4.78-.84,2.83-1.69,5.67-2.53,8.5-1.93,6.48-3.85,12.96-5.78,19.44-.83,2.78-1.58,5.59-2.48,8.34l-32.56-76.06c-1.17-2.74.84-5.78,3.81-5.78,12.09,0,23-4.02,32.76-12.09,9.74-8.06,16.71-18.97,20.91-32.76l24.43-79.58c3.45-11.13,2.34-21.54-3.33-31.22C476.78,4.84,469.01,0,459.14,0h-216.87l-61.52,201.07c-.53,1.74-2.15,2.94-3.97,2.94h-80.74c-2.29,0-4.15-1.86-4.15-4.15,0-.41.06-.83.18-1.22l10.76-34.79c.54-1.74,2.15-2.92,3.96-2.92h53.29c2.06,0,3.81-1.52,4.11-3.55,2.71-18.36,3.44-22.5,6.01-42.17l1.82-12.02c.12-.76.02-1.54-.29-2.25L129.61,2.52C128.96.99,127.45,0,125.79,0H48.96C45.98,0,43.97,3.05,45.15,5.78l38.72,90.44c1.17,2.74-.84,5.78-3.82,5.78-12.09,0-23,4.02-32.75,12.09-9.74,8.06-16.71,18.98-20.91,32.76L1.96,226.43c-3.45,11.14-2.34,21.54,3.33,31.22,5.68,9.67,13.45,14.51,23.32,14.51h216.87l61.52-201.07c.53-1.74,2.15-2.94,3.97-2.94h80.74c2.29,0,4.15,1.86,4.15,4.15,0,.41-.06.83-.18,1.22l-10.76,34.79c-.54,1.74-2.15,2.92-3.96,2.92h-53.29c-2.06,0-3.81,1.52-4.11,3.55-2.71,18.36-3.44,22.5-6.01,42.17l-1.82,12.02c-.12.76-.02,1.54.29,2.25l42.13,98.4c.65,1.53,2.16,2.52,3.82,2.52h76.83c.27,0,.53-.03.78-.08,15.8,0,31.6.02,47.39.03,12.55,0,25.1.02,37.65.02,12.5,0,25.51,1.03,37.9-.41,7.11-.83,14.11-2.64,20.66-5.53,7.18-3.17,13.8-7.66,19.32-13.26,6.12-6.21,9.4-12.7,12.31-20.78,6.44-17.83,13.05-35.61,18.6-53.74,2.99-9.78,6.08-19.93,7.57-30.07.96-6.55.7-13.54-2.45-19.36-2.56-4.74-6.85-8.35-11.57-10.94-10.02-5.5-21.95-7.94-32.96-10.63-5.82-1.43-11.66-2.79-17.46-4.29-4.91-1.27-12.42-2.07-16.68-4.88-6.4-4.21-1.9-21.18.54-27.36,2.27-5.76,7.35-9.71,13.46-10.74l91.92-.16,16.66-51.54,2.52-7.79s-105.79-.4-105.79-.4Z"/>
</svg>